<svg xmlns="http://www.w3.org/2000/svg" version="1.1" xmlns:xlink="http://www.w3.org/1999/xlink" xmlns:svgjs="http://svgjs.com/svgjs" width="1440" height="560" preserveAspectRatio="none" viewBox="0 0 1440 560"><g mask="url(&quot;#SvgjsMask1005&quot;)" fill="none"><path d="M663.33 624.75C822.5 573.33 869.7 114.26 1093.03 111.91 1316.35 109.56 1396.47 369.94 1522.72 380.71" stroke="rgba(51,121,194,0.58)" stroke-width="2"></path><path d="M942.79 596.9C1041.17 595.32 1106.46 484.8 1316.54 473.59 1526.61 462.38 1576.71 223.15 1690.28 210.39" stroke="rgba(51,121,194,0.58)" stroke-width="2"></path><path d="M786.19 588.37C932.18 522.58 951 65.97 1147.53 59.49 1344.07 53.01 1403.65 269.62 1508.88 277.89" stroke="rgba(51,121,194,0.58)" stroke-width="2"></path><path d="M958.59 579.5C1040.54 561.28 983.45 366.59 1199.2 345.27 1414.95 323.95 1545.44 105.9 1680.42 98.87" stroke="rgba(51,121,194,0.58)" stroke-width="2"></path><path d="M463.72 648.08C605.42 590.82 544.76 157.27 824.94 154.88 1105.13 152.49 1359.51 360.05 1547.39 362.08" stroke="rgba(51,121,194,0.58)" stroke-width="2"></path></g><defs><mask id="SvgjsMask1005"><rect width="1440" height="560" fill="#ffffff"></rect></mask></defs></svg>