<svg xmlns="http://www.w3.org/2000/svg" xmlns:xlink="http://www.w3.org/1999/xlink" width="2000" height="1833" viewBox="0 0 2000 1833"><defs><clipPath id="a"><rect width="2000" height="1833" transform="translate(793.898 -0.276)" fill="#0f52ba" stroke="#0f52ba" stroke-width="1"/></clipPath></defs><g transform="translate(-793.898 0.276)" clip-path="url(#a)"><path d="M2286.333,44.005V1878.278c-140.444-30.666-274.007-113.95-339.512-241.737-41.278-80.5-58.111-179.892-130.2-234.559-60.448-45.816-145.053-46.254-217.947-25.178s-138.69,60.891-208.437,90.753c-108.828,46.691-231.7,69.013-346.685,40.689C928.507,1480,823.992,1394.733,792.888,1280.417c-33.592-123.686,14.858-274.595-69.089-371.57C629.976,800.386,438.227,842.834,334.154,744.1c-66.525-63.087-76.477-166.2-62.79-256.882s46.545-178.575,49.546-270.277c1.975-60.307-13.174-125.224-47.716-172.94Z" transform="translate(530.086 -47.101)" fill="#0f52ba" stroke="#6ac346" stroke-width="1"/><path d="M2226.662,44V1824.1c-136.3-29.761-265.914-110.584-329.484-234.6-40.059-78.126-56.395-174.578-126.355-227.631-58.663-44.463-140.769-44.887-211.51-24.434s-134.594,59.092-202.281,88.072c-105.613,45.312-224.861,66.975-336.445,39.487-111.647-27.415-213.075-110.16-243.26-221.1-32.6-120.033,14.419-266.484-67.048-360.6C619.227,778.045,433.142,819.24,332.143,723.426c-64.56-61.224-74.219-161.3-60.936-249.295s45.17-173.3,48.082-262.295C321.206,153.311,306.5,90.312,272.983,44Z" transform="translate(567.236 -44.006)" fill="url(#b)"/></g></svg>